<svg width="144" height="35" viewBox="0 0 144 35" fill="none" xmlns="http://www.w3.org/2000/svg">
<g opacity="0.9">
<path d="M11.5504 19.1157V23.0983C14.5892 23.0947 17.5025 21.923 19.6513 19.8402C21.8 17.7573 23.0087 14.9335 23.0125 11.9879H18.9037C18.9014 13.8776 18.1258 15.6892 16.7474 17.0254C15.3689 18.3616 13.4999 19.1133 11.5504 19.1157Z" fill="#999999"/>
<path d="M11.5493 30.0861C9.61382 30.0861 7.75768 29.3408 6.38912 28.0143C5.02056 26.6877 4.25172 24.8885 4.25172 23.0124C4.25172 21.1363 5.02056 19.3371 6.38912 18.0105C7.75768 16.6839 9.61382 15.9387 11.5493 15.9387V11.9853C10.0547 11.9833 8.57443 12.2666 7.19285 12.8191C5.81127 13.3715 4.55547 14.1824 3.49717 15.2053C2.43887 16.2281 1.59878 17.4432 1.02488 18.7807C0.450974 20.1184 0.15449 21.5525 0.152355 23.0012C0.15022 24.4498 0.442476 25.8847 1.01244 27.224C1.5824 28.5631 2.4189 29.7804 3.47418 30.8063C4.52946 31.8321 5.78286 32.6464 7.16281 33.2027C8.54276 33.759 10.0222 34.0464 11.5168 34.0485H11.5493V30.0861Z" fill="#3B3B3B"/>
<path d="M11.5493 30.0861L11.5504 34.0395C14.5688 34.0395 17.4635 32.8773 19.5978 30.8085C21.7321 28.7397 22.9311 25.9337 22.9311 23.008H18.8481C18.8468 24.884 18.0777 26.6831 16.7095 28.0101C15.3414 29.3371 13.4848 30.0837 11.5493 30.0861Z" fill="#909090"/>
<path d="M11.5504 8.02963V11.9829C14.5688 11.9829 17.4635 10.8207 19.5978 8.75191C21.7321 6.68309 22.9311 3.87717 22.9311 0.951416H18.8481C18.8468 2.82753 18.0777 4.62653 16.7095 5.95356C15.3414 7.2806 13.486 8.02725 11.5504 8.02963Z" fill="#444444"/>
<path d="M22.9972 8.02963V11.9829C26.0155 11.9829 28.9102 10.8207 31.0445 8.75191C33.1788 6.68309 34.3778 3.87717 34.3778 0.951416H30.297C30.2958 2.82791 29.5264 4.62726 28.1577 5.95436C26.7891 7.28145 24.9331 8.02784 22.9972 8.02963Z" fill="#767676"/>
<path d="M53.3829 17.4694H55.4848L55.9795 18.5455C56.2422 18.3125 56.5331 18.1115 56.8458 17.9467C57.1717 17.7849 57.5103 17.6487 57.8585 17.5392C58.2904 17.4071 58.7412 17.3425 59.194 17.3478C59.8937 17.3439 60.5859 17.486 61.224 17.7643C61.8639 18.041 62.4398 18.4399 62.9171 18.9372C63.4134 19.4586 63.8069 20.0637 64.0784 20.7226C64.6531 22.1718 64.6531 23.776 64.0784 25.2252C63.8076 25.8844 63.4139 26.4895 62.9171 27.0106C62.4397 27.5083 61.8638 27.908 61.224 28.1857C60.5865 28.4634 59.8952 28.6062 59.1963 28.6045C58.7734 28.6122 58.3519 28.556 57.9468 28.4379C57.6286 28.3396 57.3181 28.2192 57.0178 28.0777C56.7323 27.9247 56.4664 27.7395 56.2258 27.5261V32.3192H53.3829V17.4694ZM58.8224 25.9771C59.2002 25.9858 59.5759 25.9177 59.925 25.7773C60.2742 25.637 60.5892 25.4275 60.85 25.1622C61.3966 24.6189 61.6691 23.8917 61.6675 22.9806C61.6872 22.5826 61.6252 22.1848 61.4848 21.8103C61.3445 21.4357 61.1287 21.0921 60.85 20.7991C60.5841 20.5413 60.2683 20.3367 59.9208 20.1972C59.5733 20.0576 59.2009 19.9857 58.8247 19.9857C58.4486 19.9857 58.0761 20.0576 57.7286 20.1972C57.3811 20.3367 57.0654 20.5413 56.7994 20.7991C56.256 21.3439 55.9841 22.0711 55.9841 22.9806C55.9841 23.8902 56.256 24.6174 56.7994 25.1622C57.0601 25.4275 57.3753 25.637 57.7244 25.7773C58.0736 25.9177 58.4491 25.9858 58.827 25.9771H58.8224Z" fill="#090909"/>
<path d="M71.3102 28.6143C70.7812 28.6204 70.2558 28.5272 69.7634 28.3396C69.3032 28.1613 68.8893 27.8868 68.551 27.5359C68.2067 27.1737 67.9385 26.7501 67.7613 26.2887C67.5634 25.767 67.4665 25.2144 67.4757 24.6587V19.9848H65.7453V17.7088H66.4863C67.3936 17.7088 67.8473 17.269 67.8473 16.3895V14.8383H70.3208V17.4769H72.792V19.9917H70.3208V24.5461C70.3052 24.7356 70.3283 24.9262 70.3888 25.1071C70.4492 25.288 70.5459 25.4555 70.6731 25.6002C70.8004 25.7449 70.9557 25.8638 71.1304 25.9502C71.3051 26.0367 71.4957 26.0889 71.6911 26.104C71.7684 26.1105 71.8461 26.1105 71.9234 26.104C72.0301 26.1094 72.1371 26.1094 72.2439 26.104C72.3222 26.098 72.3999 26.0859 72.4762 26.068C72.5443 26.0508 72.6105 26.0266 72.6736 25.996V28.3936C72.5462 28.4456 72.414 28.4855 72.2788 28.513C71.9625 28.5908 71.6364 28.6249 71.3102 28.6143Z" fill="#090909"/>
<path d="M76.6256 16.1502C76.2431 16.1596 75.8691 16.0394 75.5679 15.8106C75.2668 15.5817 75.0574 15.2583 74.9755 14.8959C74.8936 14.5336 74.9445 14.1549 75.1194 13.825C75.2943 13.495 75.5822 13.2345 75.9339 13.088C76.2854 12.9415 76.6787 12.9183 77.046 13.0224C77.4134 13.1265 77.7318 13.3512 77.9467 13.6582C78.1616 13.9652 78.2594 14.335 78.2235 14.7044C78.1876 15.0737 78.02 15.4194 77.7497 15.6819C77.6053 15.8303 77.4311 15.9484 77.2377 16.029C77.0444 16.1095 76.8361 16.1507 76.6256 16.1502ZM75.1415 17.4694H77.9843V28.5011H75.1415V17.4694Z" fill="#090909"/>
<path d="M80.7023 17.4695H82.8042L83.2989 18.5457C83.532 18.3204 83.7889 18.1197 84.0654 17.9467C84.3338 17.7862 84.6168 17.6498 84.9108 17.5393C85.266 17.4082 85.6434 17.3433 86.0233 17.348C86.528 17.3355 87.0308 17.4118 87.5074 17.5731C87.8636 17.6987 88.2035 17.8642 88.5201 18.0661C88.8038 18.2596 89.0476 18.5032 89.2377 18.7843C89.5094 18.5074 89.8166 18.266 90.1532 18.0661C90.4915 17.8707 90.8476 17.7057 91.217 17.5731C91.6521 17.4188 92.1121 17.3425 92.5756 17.348C93.8135 17.348 94.8 17.7329 95.5433 18.4984C96.2865 19.2638 96.6559 20.4008 96.6559 21.9024V28.4943H93.809V22.1433C93.8401 21.5679 93.6403 21.0032 93.2514 20.5674C93.104 20.4018 92.9246 20.2662 92.723 20.168C92.5223 20.0698 92.303 20.0111 92.0775 19.9952C91.8528 19.9793 91.6273 20.0066 91.4132 20.0754C91.1992 20.1442 91.0012 20.2532 90.8307 20.3962C90.7686 20.4499 90.7099 20.507 90.6549 20.5674C90.266 21.0029 90.0662 21.568 90.0999 22.1433V28.4943H87.2544V22.1433C87.2873 21.568 87.0882 21.0029 86.6992 20.5674C86.5519 20.4018 86.3722 20.2661 86.1707 20.1679C85.9691 20.0696 85.7496 20.011 85.5246 19.9951C85.2996 19.9792 85.0736 20.0064 84.8595 20.0752C84.6454 20.1441 84.4473 20.2532 84.2768 20.3962C84.2147 20.4493 84.1564 20.5064 84.1025 20.5674C83.7138 21.0032 83.5141 21.5679 83.5452 22.1433V28.4943H80.7023V17.4695Z" fill="#090909"/>
<path d="M100.733 16.1496C100.349 16.1594 99.9734 16.0393 99.6715 15.8099C99.3687 15.5805 99.1582 15.2562 99.0765 14.8927C98.994 14.5292 99.0446 14.1494 99.2204 13.8182C99.3953 13.4872 99.6848 13.2258 100.037 13.0788C100.39 12.9318 100.784 12.9087 101.153 13.0132C101.521 13.1177 101.841 13.3433 102.056 13.6514C102.272 13.9594 102.369 14.3306 102.333 14.7011C102.296 15.0715 102.129 15.4182 101.857 15.6813C101.712 15.8297 101.538 15.9478 101.344 16.0283C101.152 16.1089 100.943 16.1502 100.733 16.1496ZM99.2488 17.4689H102.098V28.5004H99.2488V17.4689Z" fill="#090909"/>
<path d="M104.189 26.2157L109.134 20.1056H104.189V17.4694H112.72V19.7454L107.78 25.8691H112.971V28.5054H104.189V26.2157Z" fill="#090909"/>
<path d="M120.147 28.6137C119.393 28.6164 118.647 28.4629 117.959 28.1635C117.283 27.875 116.67 27.4639 116.154 26.9522C115.631 26.4363 115.211 25.831 114.916 25.1669C114.615 24.4727 114.46 23.7272 114.46 22.9741C114.46 22.221 114.615 21.4754 114.916 20.7813C115.211 20.1172 115.631 19.5118 116.154 18.996C116.671 18.4849 117.283 18.0739 117.959 17.7848C118.634 17.4988 119.363 17.3482 120.1 17.342C120.837 17.3359 121.567 17.4742 122.249 17.7487C122.899 18.0164 123.487 18.4075 123.978 18.8992C124.486 19.4149 124.885 20.0213 125.154 20.6845C125.449 21.4136 125.595 22.191 125.586 22.9741C125.586 23.0983 125.578 23.2223 125.562 23.3455C125.544 23.4649 125.528 23.582 125.512 23.6945C125.495 23.8071 125.479 23.9422 125.463 24.0524H117.55C117.673 24.5831 117.968 25.0617 118.39 25.419C118.885 25.8086 119.511 26.0053 120.147 25.9706C120.468 25.9771 120.79 25.9369 121.099 25.8513C121.329 25.7817 121.549 25.6849 121.754 25.5631C121.94 25.4442 122.107 25.2984 122.249 25.1309H125.217C125.052 25.5756 124.823 25.9955 124.536 26.3781C124.225 26.8047 123.85 27.184 123.423 27.5038C122.971 27.839 122.471 28.1096 121.939 28.3075C121.367 28.5156 120.758 28.6194 120.147 28.6137ZM122.867 22.1434C122.748 21.5276 122.412 20.9713 121.915 20.5709C121.418 20.1705 120.792 19.9513 120.147 19.9513C119.5 19.9513 118.875 20.1705 118.378 20.5709C117.881 20.9713 117.545 21.5276 117.427 22.1434H122.867Z" fill="#090909"/>
<path d="M127.686 13.394H130.529V28.4938H127.686V13.394Z" fill="#090909"/>
<path d="M134.847 32.4498C134.717 32.4498 134.589 32.4452 134.464 32.4363C134.36 32.4309 134.257 32.4189 134.155 32.4002C134.054 32.3885 133.955 32.3642 133.86 32.3282V30.0521C134.376 30.0851 134.887 29.9408 135.305 29.6446C135.648 29.368 135.915 29.0139 136.085 28.6135L136.331 28.0146L132.004 17.4694H134.972L137.816 24.6579L140.421 17.4694H143.39C142.582 19.4821 141.847 21.3033 141.187 22.9333C140.907 23.6357 140.631 24.3247 140.359 24.9933C140.087 25.6619 139.846 26.2766 139.629 26.8282C139.413 27.3797 139.235 27.839 139.086 28.206C138.937 28.5729 138.854 28.789 138.814 28.8544C138.575 29.4258 138.299 29.9816 137.984 30.5181C137.75 30.929 137.454 31.3044 137.107 31.6325C136.818 31.9064 136.473 32.1188 136.094 32.2561C135.693 32.3912 135.272 32.4567 134.847 32.4498Z" fill="#090909"/>
<path d="M42.8524 11.9853C41.1564 11.9853 39.4984 12.4728 38.0883 13.3861C36.6782 14.2994 35.5791 15.5976 34.9301 17.1164C34.2811 18.6352 34.1112 20.3065 34.4421 21.9189C34.7729 23.5312 35.5897 25.0123 36.7889 26.1747C37.9881 27.3372 39.516 28.1288 41.1794 28.4495C42.8428 28.7702 44.567 28.6057 46.1338 27.9765C47.7007 27.3474 49.0399 26.2821 49.9822 24.9151C50.9244 23.5482 51.4273 21.9413 51.4273 20.2972C51.4276 19.2056 51.206 18.1247 50.7752 17.1161C50.3444 16.1075 49.7127 15.1911 48.9164 14.4192C48.1201 13.6473 47.1747 13.035 46.1342 12.6174C45.0937 12.1998 43.9785 11.985 42.8524 11.9853ZM42.8524 25.7185C41.7436 25.7313 40.656 25.4251 39.727 24.8384C38.7981 24.2517 38.0696 23.411 37.6338 22.4227C37.1981 21.4344 37.0747 20.3431 37.2793 19.2868C37.4839 18.2305 38.0071 17.2568 38.783 16.4889C39.5588 15.7212 40.5523 15.1938 41.6375 14.9736C42.7227 14.7535 43.851 14.8503 44.8794 15.2521C45.9077 15.6539 46.7899 16.3423 47.4144 17.2305C48.0388 18.1186 48.3773 19.1663 48.3871 20.241V20.304C48.392 21.7336 47.8123 23.1067 46.7749 24.1229C45.7376 25.139 44.327 25.7151 42.8524 25.7252V25.7185Z" fill="#090909"/>
</g>
</svg>
