<svg width="136" height="24" viewBox="0 0 136 24" fill="none" xmlns="http://www.w3.org/2000/svg">
<path opacity="0.9" d="M133.848 7.25649C133.848 6.74368 133.485 6.40181 132.887 6.40181L131.711 6.42318L131.733 9.02995H132.374V8.13253H132.758L133.314 9.02995H134.062L133.399 8.0257C133.536 7.94965 133.65 7.83807 133.729 7.70271C133.808 7.56734 133.849 7.41319 133.848 7.25649ZM132.758 7.59836H132.352V6.93598H132.822C132.907 6.92671 132.992 6.9504 133.06 7.00212C133.127 7.05385 133.172 7.12964 133.186 7.21376V7.23512C133.184 7.28794 133.171 7.33983 133.148 7.38744C133.125 7.43505 133.093 7.47733 133.053 7.51156C133.012 7.54578 132.965 7.57119 132.915 7.58614C132.864 7.60109 132.811 7.60525 132.758 7.59836ZM37.9802 19.3075C36.8905 19.3075 36.1427 18.4528 36.1427 17.1921V11.4444H40.6295V7.38469H36.1534L36.1107 2.7267H31.1539L31.1966 18.2391C31.1966 21.38 33.2904 23.5167 36.3671 23.5167C37.9909 23.5167 39.5292 23.2817 40.747 22.7262V18.7733C39.8822 19.1746 38.9322 19.358 37.9802 19.3075ZM49.8168 7.12829C45.2018 7.12829 41.6551 10.7179 41.6551 15.4828C41.6551 20.2049 45.2018 23.4954 50.0945 23.4954C52.8507 23.4954 55.4359 22.5125 57.017 20.4826L53.2139 18.7519C52.4447 19.457 51.2696 19.7348 50.2227 19.7348C48.5135 19.7348 46.8042 18.8587 46.5692 17.0639H57.9144C58.0849 16.4226 58.1711 15.7618 58.1707 15.0982C58.1707 10.2051 54.6027 7.12829 49.8274 7.12829H49.8168ZM46.5692 13.923C46.7187 11.7863 48.2571 10.8034 49.945 10.8034C51.8465 10.8034 53.278 11.8717 53.278 13.7093V13.923H46.5692ZM26.4427 19.3075C25.3531 19.3075 24.6053 18.4528 24.6053 17.1921V11.4444H29.0921V7.38469H24.616L24.5732 2.7267H19.6164L19.6591 18.2391C19.6591 21.38 21.753 23.5167 24.8296 23.5167C26.4534 23.5167 27.9917 23.2817 29.2096 22.7262V18.7733C28.3454 19.1766 27.3949 19.3601 26.4427 19.3075ZM9.0297 7.12829C4.77793 7.12829 0.3125 9.92736 0.3125 15.5682C0.3125 20.269 3.47462 23.5595 7.47 23.5595C9.75613 23.5595 11.4867 22.6407 12.6191 21.0168L12.7687 23.2817H17.5653V15.7605C17.5653 10.0342 13.3456 7.12829 9.0297 7.12829ZM9.0297 19.222C6.87176 19.222 5.31207 17.6195 5.31207 15.3546C5.31207 13.0897 6.8504 11.4871 9.0297 11.4871C11.0381 11.4871 12.7046 13.2392 12.7046 15.3546C12.7046 17.4699 11.0381 19.222 9.0297 19.222ZM132.651 5.22662C131.092 5.24799 130.088 6.25224 130.109 7.74793C130.13 9.24362 131.156 10.2265 132.716 10.2051C134.233 10.1838 135.258 9.17952 135.237 7.66246C135.215 6.14541 134.19 5.20526 132.651 5.22662ZM132.716 9.77779C131.498 9.79916 130.664 8.98721 130.664 7.74793C130.664 6.50865 131.455 5.67533 132.673 5.65396C133.891 5.6326 134.703 6.44454 134.724 7.70519C134.724 8.92311 133.912 9.75642 132.726 9.77779H132.716ZM108.423 7.40606L104.962 17.4485L101.458 7.40606H96.0734L102.526 23.2603H107.355L113.807 7.40606H108.423ZM121.264 7.12829C116.649 7.12829 113.102 10.7179 113.102 15.4828C113.102 20.2049 116.649 23.4954 121.541 23.4954C124.298 23.4954 126.883 22.5125 128.464 20.4826L124.661 18.7519C123.892 19.457 122.716 19.7348 121.67 19.7348C119.96 19.7348 118.251 18.8587 118.016 17.0639H129.361C129.532 16.4226 129.618 15.7618 129.618 15.0982C129.618 10.2051 126.049 7.12829 121.264 7.12829ZM124.725 13.923H118.016C118.166 11.7863 119.704 10.8034 121.392 10.8034C123.293 10.8034 124.725 11.8717 124.725 13.7093V13.923ZM92.249 0.44043C90.497 0.44043 89.1723 1.61561 89.1723 3.26087C89.1723 4.90613 90.497 6.12404 92.249 6.12404C94.001 6.12404 95.3257 4.92749 95.3257 3.26087C95.3257 1.59425 94.0223 0.44043 92.249 0.44043ZM69.7509 7.10692C68.7492 7.09073 67.7603 7.33411 66.8804 7.81337C66.0006 8.29263 65.2598 8.99146 64.73 9.84189L64.5591 7.40606H59.7732V23.2603H64.73V14.9486C64.8368 12.9615 66.4393 11.4444 68.1912 11.4444C70.1569 11.4444 71.0543 12.9187 71.0543 14.7777V23.239H75.9897V14.0084C75.9897 9.99146 73.5433 7.10692 69.7509 7.10692ZM84.8778 19.3075C83.7882 19.3075 83.0404 18.4528 83.0404 17.1921V11.4444H87.5272V7.38469H83.0404L82.9977 2.7267H78.0408L78.0835 18.2391C78.0835 21.38 80.1774 23.5167 83.2541 23.5167C84.8778 23.5167 86.4162 23.2817 87.634 22.7262V18.7733C86.773 19.1748 85.8265 19.3583 84.8778 19.3075ZM89.7492 7.40606V23.2603H94.7488V7.40606C94.0076 7.89726 93.1381 8.15922 92.249 8.15922C91.3598 8.15922 90.4904 7.89726 89.7492 7.40606Z" fill="#090909"/>
</svg>
