<svg width="127" height="38" viewBox="0 0 127 38" fill="none" xmlns="http://www.w3.org/2000/svg">
<g opacity="0.9">
<path d="M37.0533 0.206862L32.7705 4.47583H35.5819C35.5819 4.47583 35.5819 7.51118 35.5819 8.83949C35.5819 8.9991 35.5819 9.15872 35.5819 9.31833V19.1143C35.5763 23.1987 33.9711 27.1228 31.1019 30.0653C28.2533 33.0334 24.3404 34.7815 20.2019 34.9348C18.9354 34.9934 17.6664 34.8916 16.4261 34.6319C13.0978 33.9789 10.0639 32.3036 7.75817 29.8454C5.45249 27.3873 3.99316 24.2722 3.58891 20.9457C3.28868 18.4521 3.59603 15.9236 4.48536 13.5708C5.37469 11.2181 6.82029 9.109 8.70186 7.4192C12.4831 4.06733 16.9221 2.75255 21.9528 3.44782C24.4482 3.79348 26.8197 4.73716 28.8605 6.19641C30.1531 7.1051 31.3011 8.1993 32.2665 9.44277C32.3239 9.51852 32.365 9.62133 32.4829 9.65108C32.4857 9.61688 32.4857 9.58249 32.4829 9.54828C32.4829 8.14694 32.4829 6.74558 32.4829 5.34694C32.4825 5.27122 32.4639 5.19668 32.4286 5.12943C32.3934 5.06218 32.3425 5.00415 32.2801 4.96008C28.7808 1.79966 24.2182 0.0336429 19.4758 0.00396344C18.2112 -0.00938991 16.9486 0.106656 15.7082 0.350242C13.9521 0.678287 12.2519 1.25028 10.6583 2.04918C8.37739 3.19347 6.34949 4.77376 4.69235 6.69828C3.03519 8.62281 1.78183 10.8532 1.00503 13.26C0.557047 14.6363 0.275605 16.0602 0.166566 17.5019C0.172359 17.6072 0.158425 17.7127 0.125465 17.813C0.103544 18.1918 0.0898438 18.5759 0.0898438 18.9627C0.0898438 19.5417 0.116331 20.1134 0.169306 20.6779C0.191226 20.8376 0.213147 20.9998 0.229587 21.1622C0.369716 22.4039 0.633114 23.6289 1.01599 24.8197L1.03243 24.8658C1.07627 24.9983 1.12011 25.1363 1.16669 25.2634C1.18587 25.3094 1.20231 25.3581 1.21875 25.4041L1.40234 25.8829C1.44617 25.9938 1.49276 26.1048 1.53934 26.2156C1.55578 26.259 1.57222 26.2995 1.5914 26.3428C2.51603 28.4956 3.82775 30.4652 5.46311 32.1565C5.51517 32.2133 5.56723 32.2647 5.62203 32.3189C5.67683 32.373 5.77548 32.4704 5.85219 32.546L6.03578 32.7246C6.15634 32.8382 6.2769 32.9519 6.40021 33.0628L6.56461 33.2035C6.666 33.2928 6.76738 33.382 6.8715 33.474L6.97836 33.566C8.13578 34.5185 9.40097 35.3355 10.7487 36.0008C12.6139 36.9337 14.6265 37.5457 16.7001 37.8106C17.1851 37.8728 17.6701 37.9161 18.155 37.9621C18.5332 37.9838 18.914 37.9973 19.2977 37.9973C19.7388 37.9973 20.1772 37.9811 20.6129 37.9513C21.2212 37.889 21.8322 37.8349 22.4378 37.743L22.5885 37.7213C24.4883 37.4178 26.3277 36.8198 28.0384 35.9494C31.8906 34.0338 34.9723 30.8872 36.782 27.0218C37.9791 24.5035 38.5905 21.7527 38.5713 18.9709C38.5713 17.0312 38.5905 4.48395 38.5905 4.48395L41.3634 4.46502L37.0533 0.206862Z" fill="#090909"/>
<path d="M8.25778 21.6611V26.7498C8.61505 27.2013 8.99838 27.6321 9.40587 28.0402C10.169 28.8025 11.0196 29.4744 11.9404 30.0421V21.6556L8.25778 21.6611Z" fill="#090909" fill-opacity="0.8"/>
<path d="M12.7955 18.4012V30.5128C13.9593 31.1173 15.2023 31.5598 16.4891 31.8276V18.4012H12.7955Z" fill="#090909" fill-opacity="0.8"/>
<path d="M17.3329 15.0926V31.9953C18.2188 32.1328 19.1169 32.18 20.0126 32.136C20.3552 32.1171 20.6922 32.0901 21.0264 32.0522V15.0926H17.3329Z" fill="#090909" fill-opacity="0.8"/>
<path d="M21.8706 11.7328V31.9279C23.1529 31.716 24.3989 31.3282 25.5724 30.7754V11.7328H21.8706Z" fill="#090909" fill-opacity="0.8"/>
<path d="M26.4079 8.46725V30.3369C27.5958 29.6597 28.6806 28.8199 29.6303 27.8426C29.7919 27.6776 29.948 27.5072 30.1015 27.3367V8.46725H26.4079Z" fill="#090909" fill-opacity="0.8"/>
<path d="M51.2468 13.2856C50.457 12.965 49.61 12.8049 48.7561 12.8148C47.5102 12.7972 46.2815 13.1042 45.194 13.7049C44.1439 14.2962 43.2843 15.1683 42.7143 16.2208C42.0972 17.3771 41.7871 18.669 41.8128 19.9758C41.7881 21.2876 42.0982 22.5845 42.7143 23.747C43.2816 24.8042 44.1416 25.6806 45.194 26.2737C46.2813 26.8753 47.5099 27.1832 48.7561 27.1665C49.6391 27.1753 50.5146 27.0059 51.3291 26.6687C52.0974 26.344 52.7703 25.8332 53.2854 25.1834L53.5101 24.9129V26.988H56.4009V7.42044H53.3868V14.9547L53.1649 14.6842C52.6483 14.073 51.9904 13.5932 51.2468 13.2856ZM53.4389 19.9758C53.4561 20.813 53.2622 21.6414 52.8744 22.3862C52.5235 23.0586 51.9892 23.6208 51.3318 24.0094C50.6641 24.3783 49.9117 24.572 49.1466 24.572C48.3814 24.572 47.6291 24.3783 46.9614 24.0094C46.305 23.6204 45.7716 23.0582 45.4214 22.3862C45.0338 21.6414 44.8397 20.813 44.857 19.9758C44.84 19.1394 45.0341 18.312 45.4214 17.5681C45.7716 16.896 46.305 16.3338 46.9614 15.9449C47.63 15.578 48.3831 15.3872 49.148 15.391C49.913 15.3948 50.6642 15.593 51.3291 15.9665C51.9864 16.355 52.5207 16.9172 52.8716 17.5896C53.2565 18.327 53.4513 19.1465 53.4389 19.9758Z" fill="#090909"/>
<path d="M82.2424 13.9536C81.0549 13.1231 79.6366 12.6753 78.1816 12.6713H78.1296C76.9295 12.6395 75.7354 12.8485 74.6195 13.2854C73.7689 13.6205 72.9723 14.0762 72.2548 14.638L73.5482 16.5317C74.1212 16.0867 74.771 15.7476 75.4662 15.5308C76.2409 15.2803 77.0512 15.1534 77.8665 15.1548C79.0611 15.1548 79.5352 15.3063 80.1763 15.8906C80.8176 16.475 80.8477 17.2595 80.8477 18.3254V18.6717H77.0116C74.9867 18.6717 73.4851 19.0639 72.5535 19.8377C72.0985 20.2107 71.7359 20.6815 71.4937 21.2142C71.2514 21.7469 71.1359 22.3273 71.1561 22.9108C71.1459 23.6895 71.369 24.4537 71.7972 25.1076C72.2448 25.7749 72.8761 26.3024 73.6166 26.628C74.4904 27.0077 75.438 27.1924 76.3923 27.169C77.321 27.1927 78.2443 27.0232 79.1022 26.6713C79.5803 26.4468 80.0217 26.1533 80.4119 25.8001C80.6424 25.5847 80.8508 25.3472 81.034 25.0914L81.1683 24.8993V26.9769H83.8206V18.2659C83.8096 16.1639 83.2808 14.7138 82.2424 13.9536ZM80.8394 22.5619C80.5808 23.295 80.071 23.916 79.3981 24.3176C78.6991 24.7276 77.8986 24.9383 77.0856 24.9263C76.3394 24.9685 75.5998 24.767 74.9812 24.3528C74.7316 24.1703 74.5306 23.9307 74.3955 23.6546C74.2605 23.3784 74.1953 23.074 74.2057 22.7675C74.2057 21.3905 75.2278 20.6926 77.2417 20.6926H80.8477L80.8394 22.5619Z" fill="#090909"/>
<path d="M68.6546 13.9536C67.4661 13.1213 66.0454 12.6733 64.5883 12.6714H64.5363C63.3344 12.6384 62.1383 12.8473 61.0207 13.2855C60.1694 13.6191 59.3727 14.0749 58.6561 14.6381L59.9466 16.5318C60.5198 16.0871 61.1695 15.748 61.8647 15.5308C62.6447 15.2787 63.4606 15.1517 64.2814 15.1548C65.4596 15.1548 65.9556 15.3117 66.5913 15.8907C67.227 16.4696 67.2599 17.2596 67.2599 18.3254V18.6717H63.4238C61.3989 18.6717 59.8973 19.064 58.9657 19.8377C58.5106 20.2107 58.1481 20.6815 57.9058 21.2143C57.6636 21.7469 57.5481 22.3273 57.5682 22.911C57.5581 23.6896 57.7812 24.4537 58.2094 25.1077C58.6577 25.7744 59.2886 26.3017 60.0289 26.6281C60.9026 27.0072 61.8503 27.1919 62.8045 27.1691C63.7332 27.193 64.6566 27.0235 65.5144 26.6713C65.9925 26.4469 66.434 26.1533 66.8242 25.8002C67.0546 25.5847 67.263 25.3473 67.4462 25.0914L67.5805 24.8993V26.977H70.2355V18.2659C70.2355 16.1639 69.6876 14.7139 68.6546 13.9536ZM67.2516 22.5619C66.994 23.2956 66.484 23.9169 65.8104 24.3177C65.1108 24.7289 64.3091 24.9397 63.495 24.9263C62.7505 24.9681 62.0129 24.7666 61.3961 24.3529C61.146 24.1706 60.9445 23.9312 60.8089 23.655C60.6734 23.3788 60.6079 23.0742 60.6179 22.7676C60.6179 21.3906 61.64 20.6926 63.6567 20.6926H67.2599L67.2516 22.5619Z" fill="#090909"/>
<path d="M93.7342 19.3914C93.0141 19.048 92.2663 18.7648 91.4983 18.5446C91.0545 18.4093 90.5914 18.2741 90.1859 18.174C89.8254 18.0902 89.4705 17.9855 89.1227 17.8602C88.6624 17.6384 88.3006 17.4166 88.3006 16.7943C88.298 16.5405 88.3611 16.2903 88.4839 16.0673C88.6066 15.8444 88.785 15.656 89.0021 15.5201C89.4542 15.2117 90.1145 15.0548 90.9722 15.0548C92.2457 15.084 93.4832 15.4779 94.5343 16.1884L95.5892 14.024C94.9369 13.5909 94.2219 13.258 93.4685 13.0366C92.6652 12.8175 91.8358 12.7056 91.0023 12.7039C89.2542 12.7039 87.9307 13.0745 87.0731 13.8022C86.5917 14.1849 86.202 14.6683 85.9325 15.2175C85.6629 15.7666 85.5199 16.368 85.514 16.9782C85.514 17.9521 86.336 19.459 87.4457 20.0136C88.5795 20.5084 89.7382 20.9455 90.9174 21.323C91.5175 21.5312 91.9943 21.6936 92.145 21.764C92.6601 21.9993 93.1944 22.5376 93.1643 23.0679C93.1067 24.169 92.3094 24.729 90.7969 24.729C89.9516 24.7107 89.1142 24.5638 88.3143 24.2935C87.5091 23.9625 86.7517 23.5276 86.062 23.0002L84.6208 25.1456C85.5426 25.8014 86.5453 26.3387 87.6047 26.7444C88.5232 27.0436 89.4843 27.1961 90.4516 27.1962C92.2491 27.1962 93.5041 26.8527 94.4055 26.1141C95.5016 25.2268 95.992 24.2745 95.992 23.1193C95.992 22.0372 95.7646 21.1417 95.37 20.6521C94.9067 20.1374 94.3523 19.7103 93.7342 19.3914Z" fill="#090909"/>
<path d="M98.9267 6.80352C98.6862 6.79765 98.4471 6.84157 98.2249 6.93242C98.0026 7.02328 97.802 7.15906 97.6362 7.33105C97.4653 7.50499 97.3315 7.71094 97.2425 7.93674C97.1536 8.16255 97.1114 8.40365 97.1183 8.64583C97.1109 8.88847 97.1531 9.13008 97.242 9.35638C97.331 9.58267 97.465 9.78905 97.6362 9.96331C97.8017 10.1342 98.0014 10.2694 98.2226 10.3602C98.4438 10.451 98.6817 10.4955 98.9213 10.4908C99.164 10.4984 99.4056 10.4539 99.6293 10.3605C99.853 10.2671 100.054 10.127 100.217 9.94979C100.56 9.57333 100.742 9.08122 100.727 8.5755C100.735 8.34118 100.694 8.10777 100.606 7.88989C100.518 7.67203 100.386 7.4744 100.217 7.30941C100.048 7.14356 99.8461 7.01324 99.6243 6.9263C99.4025 6.83937 99.1653 6.7976 98.9267 6.80352Z" fill="#090909"/>
<path d="M100.297 13.0475H97.5319V26.9419H100.297V13.0475Z" fill="#090909"/>
<path d="M108.774 24.6235C108.513 24.6364 108.252 24.5905 108.012 24.4892C107.771 24.388 107.556 24.2341 107.385 24.0391C107.038 23.5595 106.87 22.9768 106.908 22.3889V15.1955H110.637V12.9393H106.908V8.48365H103.976V12.9393H102.149V15.1955H103.976V22.4782C103.958 23.7546 104.434 24.9897 105.309 25.9302C106.045 26.7228 107.226 27.1774 108.522 27.1774C109.041 27.1802 109.556 27.1026 110.049 26.9474C110.713 26.6663 111.338 26.3026 111.909 25.8652L110.788 23.8796C110.234 24.3662 109.516 24.6315 108.774 24.6235Z" fill="#090909"/>
<path d="M123.506 13.0475L119.099 23.8362L114.715 13.0475H111.668L117.436 27.3288C117.452 27.7503 117.358 28.1688 117.162 28.5434C116.836 29.3064 115.846 29.9232 115.244 29.9232C114.791 29.9226 114.344 29.8306 113.929 29.6526C113.563 29.496 113.225 29.2822 112.929 29.0196L111.769 31.2542C112.191 31.6872 112.699 32.0282 113.263 32.2551C113.919 32.4923 114.611 32.6203 115.31 32.6339C116.34 32.5962 117.325 32.2147 118.107 31.5517C119.052 30.7402 119.639 29.2143 119.702 29.0439C119.787 28.814 119.875 28.576 119.976 28.3243L126.297 13.0393L123.506 13.0475Z" fill="#090909"/>
<path d="M56.2412 31.4898H57.9022C58.3075 31.4898 58.6676 31.5694 58.9824 31.7286C59.2973 31.8843 59.5416 32.1068 59.7153 32.3963C59.889 32.6822 59.9758 33.0134 59.9758 33.3897C59.9758 33.7661 59.889 34.099 59.7153 34.3885C59.5416 34.6744 59.2973 34.897 58.9824 35.0562C58.6676 35.2119 58.3075 35.2897 57.9022 35.2897H56.2412V31.4898ZM57.8696 34.6925C58.1483 34.6925 58.3926 34.6401 58.6025 34.5351C58.8159 34.4265 58.9788 34.2745 59.091 34.0791C59.2068 33.8801 59.2647 33.6503 59.2647 33.3897C59.2647 33.1292 59.2068 32.9012 59.091 32.7057C58.9788 32.5067 58.8159 32.3547 58.6025 32.2497C58.3926 32.1411 58.1483 32.0869 57.8696 32.0869H56.9468V34.6925H57.8696Z" fill="#090909"/>
<path d="M63.0016 34.4102H61.1017L60.7272 35.2897H59.9998L61.7097 31.4898H62.4046L64.1199 35.2897H63.3816L63.0016 34.4102ZM62.7683 33.8566L62.0517 32.1954L61.3406 33.8566H62.7683Z" fill="#090909"/>
<path d="M65.0475 32.0869H63.7881V31.4898H67.0125V32.0869H65.7531V35.2897H65.0475V32.0869Z" fill="#090909"/>
<path d="M69.68 34.4102H67.7802L67.4056 35.2897H66.6782L68.3881 31.4898H69.083L70.7983 35.2897H70.0601L69.68 34.4102ZM69.4466 33.8566L68.7301 32.1954L68.019 33.8566H69.4466Z" fill="#090909"/>
<path d="M74.9748 34.4102H73.0749L72.7004 35.2897H71.973L73.683 31.4898H74.3778L76.0931 35.2897H75.3549L74.9748 34.4102ZM74.7415 33.8566L74.0249 32.1954L73.3138 33.8566H74.7415Z" fill="#090909"/>
<path d="M77.6186 35.344C77.3255 35.344 77.0414 35.3024 76.7664 35.2191C76.4949 35.1359 76.2796 35.0255 76.1204 34.888L76.3647 34.3397C76.5203 34.4628 76.7102 34.5641 76.9346 34.6437C77.1626 34.7196 77.3906 34.7576 77.6186 34.7576C77.9008 34.7576 78.1108 34.7124 78.2484 34.622C78.3894 34.5315 78.46 34.4121 78.46 34.2637C78.46 34.1551 78.4202 34.0664 78.3406 33.9977C78.2646 33.9253 78.1669 33.8692 78.0474 33.8295C77.928 33.7896 77.7652 33.7444 77.5589 33.6937C77.2694 33.625 77.0342 33.5562 76.8532 33.4874C76.6758 33.4187 76.5221 33.312 76.3918 33.1672C76.2652 33.0187 76.2018 32.8198 76.2018 32.57C76.2018 32.3602 76.2579 32.1701 76.37 32.0001C76.4859 31.8264 76.6578 31.6888 76.8858 31.5875C77.1174 31.4862 77.3997 31.4355 77.7326 31.4355C77.9642 31.4355 78.1922 31.4645 78.4166 31.5224C78.641 31.5803 78.8346 31.6635 78.9975 31.7721L78.7748 32.3203C78.6084 32.2226 78.4346 32.1485 78.2537 32.0978C78.0728 32.0471 77.8972 32.0217 77.7271 32.0217C77.4485 32.0217 77.2404 32.0688 77.1029 32.1629C76.9691 32.2569 76.9021 32.3818 76.9021 32.5375C76.9021 32.646 76.9401 32.7347 77.016 32.8034C77.0957 32.8722 77.1952 32.9265 77.3146 32.9663C77.434 33.0061 77.5969 33.0514 77.8032 33.102C78.0855 33.1672 78.3171 33.2359 78.498 33.3082C78.6789 33.3771 78.8327 33.4838 78.9595 33.6286C79.0897 33.7733 79.1548 33.9688 79.1548 34.2148C79.1548 34.4248 79.0969 34.6147 78.9811 34.7848C78.869 34.9549 78.697 35.0906 78.4654 35.1919C78.2338 35.2933 77.9515 35.344 77.6186 35.344Z" fill="#090909"/>
<path d="M83.5479 34.4102H81.648L81.2734 35.2897H80.546L82.2559 31.4898H82.9508L84.6662 35.2897H83.9279L83.5479 34.4102ZM83.3144 33.8566L82.5979 32.1954L81.8868 33.8566H83.3144Z" fill="#090909"/>
<path d="M87.5562 35.344C87.263 35.344 86.9789 35.3024 86.704 35.2191C86.4325 35.1359 86.2172 35.0255 86.058 34.888L86.3023 34.3397C86.4578 34.4628 86.6478 34.5641 86.8722 34.6437C87.1002 34.7196 87.3282 34.7576 87.5562 34.7576C87.8384 34.7576 88.0484 34.7124 88.1859 34.622C88.327 34.5315 88.3975 34.4121 88.3975 34.2637C88.3975 34.1551 88.3578 34.0664 88.2781 33.9977C88.2022 33.9253 88.1044 33.8692 87.985 33.8295C87.8656 33.7896 87.7027 33.7444 87.4965 33.6937C87.2069 33.625 86.9717 33.5562 86.7908 33.4874C86.6134 33.4187 86.4597 33.312 86.3294 33.1672C86.2027 33.0187 86.1394 32.8198 86.1394 32.57C86.1394 32.3602 86.1954 32.1701 86.3076 32.0001C86.4234 31.8264 86.5954 31.6888 86.8234 31.5875C87.055 31.4862 87.3373 31.4355 87.6702 31.4355C87.9018 31.4355 88.1298 31.4645 88.3542 31.5224C88.5786 31.5803 88.7721 31.6635 88.935 31.7721L88.7124 32.3203C88.5459 32.2226 88.3722 32.1485 88.1913 32.0978C88.0104 32.0471 87.8348 32.0217 87.6647 32.0217C87.3861 32.0217 87.178 32.0688 87.0405 32.1629C86.9066 32.2569 86.8396 32.3818 86.8396 32.5375C86.8396 32.646 86.8777 32.7347 86.9536 32.8034C87.0332 32.8722 87.1328 32.9265 87.2522 32.9663C87.3716 33.0061 87.5345 33.0514 87.7407 33.102C88.023 33.1672 88.2546 33.2359 88.4356 33.3082C88.6165 33.3771 88.7703 33.4838 88.897 33.6286C89.0272 33.7733 89.0924 33.9688 89.0924 34.2148C89.0924 34.4248 89.0345 34.6147 88.9187 34.7848C88.8066 34.9549 88.6346 35.0906 88.403 35.1919C88.1714 35.2933 87.8891 35.344 87.5562 35.344Z" fill="#090909"/>
<path d="M92.5063 34.698V35.2897H89.6565V31.4898H92.4304V32.0815H90.3621V33.0694H92.1969V33.6503H90.3621V34.698H92.5063Z" fill="#090909"/>
<path d="M95.6435 35.2897L94.8673 34.1769C94.8348 34.1805 94.7858 34.1822 94.7207 34.1822H93.863V35.2897H93.1574V31.4898H94.7207C95.05 31.4898 95.3359 31.5441 95.5784 31.6527C95.8244 31.7612 96.0127 31.9168 96.1429 32.1195C96.2732 32.3222 96.3384 32.5628 96.3384 32.8414C96.3384 33.1273 96.2678 33.3735 96.1266 33.5797C95.9892 33.786 95.7901 33.9398 95.5296 34.0411L96.4035 35.2897H95.6435ZM95.6273 32.8414C95.6273 32.599 95.5476 32.4126 95.3884 32.2823C95.2291 32.1521 94.9958 32.0869 94.6881 32.0869H93.863V33.6015H94.6881C94.9958 33.6015 95.2291 33.5362 95.3884 33.406C95.5476 33.2721 95.6273 33.084 95.6273 32.8414Z" fill="#090909"/>
<path d="M100.466 31.4898L98.8107 35.2897H98.1159L96.4547 31.4898H97.2201L98.485 34.4212L99.7607 31.4898H100.466Z" fill="#090909"/>
<path d="M100.732 31.4898H101.437V35.2897H100.732V31.4898Z" fill="#090909"/>
<path d="M104.089 35.344C103.705 35.344 103.357 35.2607 103.046 35.0942C102.738 34.9241 102.496 34.6907 102.319 34.394C102.145 34.0972 102.058 33.7625 102.058 33.3897C102.058 33.017 102.147 32.6822 102.324 32.3854C102.501 32.0887 102.744 31.8571 103.051 31.6906C103.363 31.5205 103.71 31.4355 104.094 31.4355C104.404 31.4355 104.689 31.4898 104.946 31.5984C105.203 31.7069 105.42 31.8643 105.598 32.0707L105.141 32.4995C104.867 32.2028 104.528 32.0543 104.126 32.0543C103.866 32.0543 103.632 32.1122 103.426 32.228C103.22 32.3402 103.059 32.4976 102.943 32.7003C102.827 32.9029 102.769 33.1328 102.769 33.3897C102.769 33.6467 102.827 33.8764 102.943 34.0791C103.059 34.2818 103.22 34.441 103.426 34.5568C103.632 34.669 103.866 34.7251 104.126 34.7251C104.528 34.7251 104.867 34.5749 105.141 34.2745L105.598 34.7088C105.42 34.9151 105.201 35.0725 104.94 35.1811C104.683 35.2897 104.399 35.344 104.089 35.344Z" fill="#090909"/>
<path d="M108.988 34.698V35.2897H106.137V31.4898H108.912V32.0815H106.843V33.0694H108.678V33.6503H106.843V34.698H108.988Z" fill="#090909"/>
</g>
</svg>
