<svg width="102" height="33" viewBox="0 0 102 33" fill="none" xmlns="http://www.w3.org/2000/svg">
<g opacity="0.9">
<path fill-rule="evenodd" clip-rule="evenodd" d="M16.032 7.40518C11.1894 7.40518 7.2637 11.3309 7.2637 16.1734C7.2637 21.016 11.1894 24.9417 16.032 24.9417C20.8746 24.9417 24.8002 21.016 24.8002 16.1734C24.8002 11.3309 20.8745 7.40518 16.032 7.40518ZM0.214844 16.1734C0.214844 7.43788 7.2964 0.356323 16.032 0.356323C24.7675 0.356323 31.8491 7.43788 31.8491 16.1734C31.8491 24.909 24.7675 31.9906 16.032 31.9906C7.2964 31.9906 0.214844 24.909 0.214844 16.1734Z" fill="#090909" fill-opacity="0.8"/>
<path d="M42.4524 26.901H47.3911V6.80177H42.4524V26.901ZM57.4873 27.3604C63.5744 27.3604 65.728 23.5703 65.728 19.7227C65.728 15.8752 63.5744 12.085 57.4873 12.085C51.4001 12.085 49.2753 15.8752 49.2753 19.7227C49.2753 23.5989 51.4001 27.3604 57.4873 27.3604ZM54.214 19.7227C54.214 16.8514 55.1328 15.9326 57.4873 15.9326C59.8418 15.9326 60.7606 16.8514 60.7606 19.7227C60.7606 22.594 59.8418 23.5129 57.4873 23.5129C55.1328 23.5129 54.214 22.594 54.214 19.7227ZM75.174 27.3604C81.2611 27.3604 83.4146 23.5703 83.4146 19.7227C83.4146 15.8752 81.2611 12.085 75.174 12.085C69.0867 12.085 66.962 15.8752 66.962 19.7227C66.962 23.5989 69.0867 27.3604 75.174 27.3604ZM71.9006 19.7227C71.9006 16.8514 72.8195 15.9326 75.174 15.9326C77.5284 15.9326 78.4473 16.8514 78.4473 19.7227C78.4473 22.594 77.5284 23.5129 75.174 23.5129C72.8195 23.5129 71.9006 22.594 71.9006 19.7227ZM95.1563 12.085C92.7157 12.085 91.079 12.9751 90.1027 14.4969V12.5444H85.1641V32.6436H90.1027V24.8911C91.079 26.4415 92.7157 27.3604 95.1563 27.3604C99.8651 27.3604 101.731 23.7425 101.731 19.7514C101.731 15.6167 99.8651 12.085 95.1563 12.085ZM93.4909 23.5129C90.9641 23.5129 90.1027 22.2781 90.1027 19.7227C90.1027 17.1672 90.9641 15.9326 93.4909 15.9326C95.9316 15.9326 96.7925 17.0524 96.7925 19.7227C96.7925 22.393 95.9316 23.5129 93.4909 23.5129Z" fill="#090909"/>
</g>
</svg>
